<mxfile host="65bd71144e">
    <diagram id="Lc2xIOg_96W47lnHeWXJ" name="Page-1">
        <mxGraphModel dx="1199" dy="261" grid="0" gridSize="10" guides="1" tooltips="1" connect="1" arrows="1" fold="1" page="0" pageScale="1" pageWidth="827" pageHeight="1169" math="0" shadow="0">
            <root>
                <mxCell id="0"/>
                <mxCell id="1" parent="0"/>
                <mxCell id="66" value="" style="html=1;strokeWidth=2;glass=0;shadow=0;rounded=0;fillStyle=dashed;fillColor=#B0B0B0;perimeterSpacing=0;gradientColor=none;align=center;" vertex="1" parent="1">
                    <mxGeometry x="314" y="604" width="273" height="765" as="geometry"/>
                </mxCell>
                <mxCell id="2" value=":Client" style="shape=umlLifeline;participant=umlActor;perimeter=lifelinePerimeter;whiteSpace=wrap;html=1;container=1;collapsible=0;recursiveResize=0;verticalAlign=top;spacingTop=36;outlineConnect=0;strokeWidth=2;" parent="1" vertex="1">
                    <mxGeometry x="157" y="549" width="20" height="817" as="geometry"/>
                </mxCell>
                <mxCell id="70" value="" style="html=1;points=[];perimeter=orthogonalPerimeter;rounded=0;shadow=0;glass=0;sketch=0;fillStyle=dashed;strokeWidth=2;fontSize=11;fillColor=#B0B0B0;gradientColor=none;" vertex="1" parent="2">
                    <mxGeometry x="5" y="82" width="10" height="635" as="geometry"/>
                </mxCell>
                <mxCell id="3" value=":InterfacciaRemota" style="shape=umlLifeline;perimeter=lifelinePerimeter;whiteSpace=wrap;html=1;container=1;collapsible=0;recursiveResize=0;outlineConnect=0;" parent="1" vertex="1">
                    <mxGeometry x="243" y="549" width="100" height="822" as="geometry"/>
                </mxCell>
                <mxCell id="71" value="" style="html=1;points=[];perimeter=orthogonalPerimeter;rounded=0;shadow=0;glass=0;sketch=0;fillStyle=dashed;strokeWidth=2;fontSize=11;fillColor=#B0B0B0;gradientColor=none;" vertex="1" parent="3">
                    <mxGeometry x="45" y="85" width="10" height="631" as="geometry"/>
                </mxCell>
                <mxCell id="4" value=":OggettoRemoto" style="shape=umlLifeline;perimeter=lifelinePerimeter;whiteSpace=wrap;html=1;container=1;collapsible=0;recursiveResize=0;outlineConnect=0;" parent="1" vertex="1">
                    <mxGeometry x="556" y="549" width="100" height="816" as="geometry"/>
                </mxCell>
                <mxCell id="73" value="" style="html=1;points=[];perimeter=orthogonalPerimeter;rounded=0;shadow=0;glass=0;sketch=0;fillStyle=dashed;strokeWidth=2;fontSize=11;fillColor=#B0B0B0;gradientColor=none;" vertex="1" parent="4">
                    <mxGeometry x="45" y="204" width="10" height="370" as="geometry"/>
                </mxCell>
                <mxCell id="5" value=":InterfacciaDAO" style="shape=umlLifeline;perimeter=lifelinePerimeter;whiteSpace=wrap;html=1;container=1;collapsible=0;recursiveResize=0;outlineConnect=0;" parent="1" vertex="1">
                    <mxGeometry x="705" y="549" width="100" height="822" as="geometry"/>
                </mxCell>
                <mxCell id="74" value="" style="html=1;points=[];perimeter=orthogonalPerimeter;rounded=0;shadow=0;glass=0;sketch=0;fillStyle=dashed;strokeWidth=2;fontSize=11;fillColor=#B0B0B0;gradientColor=none;" vertex="1" parent="5">
                    <mxGeometry x="45" y="230" width="10" height="321" as="geometry"/>
                </mxCell>
                <mxCell id="6" value=":ImplementazioneDAO" style="shape=umlLifeline;perimeter=lifelinePerimeter;whiteSpace=wrap;html=1;container=1;collapsible=0;recursiveResize=0;outlineConnect=0;" parent="1" vertex="1">
                    <mxGeometry x="847" y="549" width="136" height="824" as="geometry"/>
                </mxCell>
                <mxCell id="75" value="" style="html=1;points=[];perimeter=orthogonalPerimeter;rounded=0;shadow=0;glass=0;sketch=0;fillStyle=dashed;strokeWidth=2;fontSize=11;fillColor=#B0B0B0;gradientColor=none;" vertex="1" parent="6">
                    <mxGeometry x="63" y="230" width="10" height="289" as="geometry"/>
                </mxCell>
                <mxCell id="14" value="" style="html=1;verticalAlign=bottom;labelBackgroundColor=none;endArrow=block;endFill=1;rounded=0;startSize=14;endSize=14;sourcePerimeterSpacing=8;targetPerimeterSpacing=8;curved=1;" parent="1" source="4" target="5" edge="1">
                    <mxGeometry width="160" relative="1" as="geometry">
                        <mxPoint x="643" y="677" as="sourcePoint"/>
                        <mxPoint x="748" y="677" as="targetPoint"/>
                        <Array as="points">
                            <mxPoint x="682" y="776"/>
                        </Array>
                    </mxGeometry>
                </mxCell>
                <mxCell id="55" value="recuperaDati()" style="edgeLabel;html=1;align=center;verticalAlign=middle;resizable=0;points=[];" vertex="1" connectable="0" parent="14">
                    <mxGeometry x="-0.4695" y="-2" relative="1" as="geometry">
                        <mxPoint x="110" y="-25" as="offset"/>
                    </mxGeometry>
                </mxCell>
                <mxCell id="15" value="" style="html=1;verticalAlign=bottom;labelBackgroundColor=none;endArrow=block;endFill=1;rounded=0;startSize=14;endSize=14;sourcePerimeterSpacing=8;targetPerimeterSpacing=8;curved=1;" parent="1" source="5" target="6" edge="1">
                    <mxGeometry width="160" relative="1" as="geometry">
                        <mxPoint x="794" y="700" as="sourcePoint"/>
                        <mxPoint x="943.5" y="700" as="targetPoint"/>
                        <Array as="points">
                            <mxPoint x="852" y="776"/>
                        </Array>
                    </mxGeometry>
                </mxCell>
                <mxCell id="10" value="" style="html=1;verticalAlign=bottom;labelBackgroundColor=none;endArrow=block;endFill=1;rounded=0;startSize=14;endSize=14;sourcePerimeterSpacing=8;targetPerimeterSpacing=8;curved=1;" parent="1" source="2" target="3" edge="1">
                    <mxGeometry width="160" relative="1" as="geometry">
                        <mxPoint x="169" y="644" as="sourcePoint"/>
                        <mxPoint x="329" y="644" as="targetPoint"/>
                        <Array as="points">
                            <mxPoint x="209" y="630"/>
                        </Array>
                    </mxGeometry>
                </mxCell>
                <mxCell id="54" value="servizioRemoto()" style="edgeLabel;html=1;align=center;verticalAlign=middle;resizable=0;points=[];" vertex="1" connectable="0" parent="10">
                    <mxGeometry x="-0.489" relative="1" as="geometry">
                        <mxPoint x="26" y="-1" as="offset"/>
                    </mxGeometry>
                </mxCell>
                <mxCell id="19" value="[DatiLetti]" style="html=1;verticalAlign=bottom;labelBackgroundColor=none;endArrow=block;endFill=1;dashed=1;rounded=0;startSize=14;endSize=14;sourcePerimeterSpacing=8;targetPerimeterSpacing=8;curved=1;" parent="1" source="5" target="4" edge="1">
                    <mxGeometry x="-1" y="34" width="160" relative="1" as="geometry">
                        <mxPoint x="1112.5" y="835" as="sourcePoint"/>
                        <mxPoint x="934.3888888888891" y="835" as="targetPoint"/>
                        <Array as="points">
                            <mxPoint x="661" y="1102"/>
                        </Array>
                        <mxPoint x="1" as="offset"/>
                    </mxGeometry>
                </mxCell>
                <mxCell id="21" value="" style="html=1;verticalAlign=bottom;labelBackgroundColor=none;endArrow=block;endFill=1;dashed=1;rounded=0;startSize=14;endSize=14;sourcePerimeterSpacing=8;targetPerimeterSpacing=8;curved=1;" parent="1" source="3" target="2" edge="1">
                    <mxGeometry width="160" relative="1" as="geometry">
                        <mxPoint x="282" y="852" as="sourcePoint"/>
                        <mxPoint x="794.3888888888891" y="855" as="targetPoint"/>
                        <Array as="points">
                            <mxPoint x="203" y="1265"/>
                        </Array>
                    </mxGeometry>
                </mxCell>
                <mxCell id="69" value="[Esito chiamata &lt;br&gt;/ Dati]" style="edgeLabel;html=1;align=center;verticalAlign=middle;resizable=0;points=[];fontSize=11;" vertex="1" connectable="0" parent="21">
                    <mxGeometry x="-0.2439" y="2" relative="1" as="geometry">
                        <mxPoint x="-11" y="-20" as="offset"/>
                    </mxGeometry>
                </mxCell>
                <mxCell id="23" value="" style="shape=umlLifeline;participant=umlActor;perimeter=lifelinePerimeter;whiteSpace=wrap;html=1;container=1;collapsible=0;recursiveResize=0;verticalAlign=top;spacingTop=36;outlineConnect=0;strokeWidth=2;perimeterSpacing=1;size=45;" vertex="1" parent="1">
                    <mxGeometry x="433" y="549" width="20" height="827" as="geometry"/>
                </mxCell>
                <mxCell id="72" value="" style="html=1;points=[];perimeter=orthogonalPerimeter;rounded=0;shadow=0;glass=0;sketch=0;fillStyle=dashed;strokeWidth=2;fontSize=11;fillColor=#B0B0B0;gradientColor=none;" vertex="1" parent="23">
                    <mxGeometry x="5" y="147" width="10" height="472" as="geometry"/>
                </mxCell>
                <mxCell id="24" value="" style="html=1;verticalAlign=bottom;labelBackgroundColor=none;endArrow=block;endFill=1;rounded=0;startSize=14;endSize=14;sourcePerimeterSpacing=8;targetPerimeterSpacing=8;" edge="1" parent="1" source="3" target="23">
                    <mxGeometry width="160" relative="1" as="geometry">
                        <mxPoint x="176.5" y="667" as="sourcePoint"/>
                        <mxPoint x="410" y="876" as="targetPoint"/>
                        <Array as="points">
                            <mxPoint x="303" y="650"/>
                            <mxPoint x="427" y="692"/>
                        </Array>
                    </mxGeometry>
                </mxCell>
                <mxCell id="28" value="" style="html=1;verticalAlign=bottom;labelBackgroundColor=none;endArrow=block;endFill=1;rounded=0;startSize=14;endSize=14;sourcePerimeterSpacing=8;targetPerimeterSpacing=8;" edge="1" parent="1" source="23" target="4">
                    <mxGeometry width="160" relative="1" as="geometry">
                        <mxPoint x="450" y="722" as="sourcePoint"/>
                        <mxPoint x="600" y="777" as="targetPoint"/>
                        <Array as="points">
                            <mxPoint x="455" y="695"/>
                            <mxPoint x="580" y="748"/>
                        </Array>
                    </mxGeometry>
                </mxCell>
                <mxCell id="57" value="&lt;div style=&quot;text-align: start;&quot;&gt;&lt;font face=&quot;monospace&quot; color=&quot;rgba(0, 0, 0, 0)&quot;&gt;&lt;span style=&quot;font-size: 0px;&quot;&gt;sdsad&lt;/span&gt;&lt;/font&gt;&lt;/div&gt;" style="edgeLabel;html=1;align=center;verticalAlign=middle;resizable=0;points=[];" vertex="1" connectable="0" parent="28">
                    <mxGeometry x="-0.1792" y="-3" relative="1" as="geometry">
                        <mxPoint as="offset"/>
                    </mxGeometry>
                </mxCell>
                <mxCell id="29" value=":Database" style="shape=umlLifeline;participant=umlActor;perimeter=lifelinePerimeter;whiteSpace=wrap;html=1;container=1;collapsible=0;recursiveResize=0;verticalAlign=top;spacingTop=36;outlineConnect=0;size=29;strokeWidth=2;" vertex="1" parent="1">
                    <mxGeometry x="1398" y="557" width="20" height="820" as="geometry"/>
                </mxCell>
                <mxCell id="78" value="" style="html=1;points=[];perimeter=orthogonalPerimeter;rounded=0;shadow=0;glass=0;sketch=0;fillStyle=dashed;strokeWidth=2;fontSize=11;fillColor=#B0B0B0;gradientColor=none;" vertex="1" parent="29">
                    <mxGeometry x="5" y="423" width="10" height="23" as="geometry"/>
                </mxCell>
                <mxCell id="31" value="" style="html=1;verticalAlign=bottom;labelBackgroundColor=none;endArrow=block;endFill=1;dashed=1;rounded=0;startSize=14;endSize=14;sourcePerimeterSpacing=8;targetPerimeterSpacing=8;curved=1;" edge="1" parent="1" source="6" target="5">
                    <mxGeometry width="160" relative="1" as="geometry">
                        <mxPoint x="920" y="986" as="sourcePoint"/>
                        <mxPoint x="771" y="986" as="targetPoint"/>
                        <Array as="points">
                            <mxPoint x="799" y="1102"/>
                        </Array>
                    </mxGeometry>
                </mxCell>
                <mxCell id="34" value=":Connection" style="shape=umlLifeline;perimeter=lifelinePerimeter;whiteSpace=wrap;html=1;container=1;collapsible=0;recursiveResize=0;outlineConnect=0;" vertex="1" parent="1">
                    <mxGeometry x="1057" y="800" width="136" height="337" as="geometry"/>
                </mxCell>
                <mxCell id="42" value="" style="html=1;verticalAlign=bottom;labelBackgroundColor=none;endArrow=block;endFill=1;rounded=0;startSize=14;endSize=14;sourcePerimeterSpacing=8;targetPerimeterSpacing=8;curved=1;" edge="1" parent="34">
                    <mxGeometry width="160" relative="1" as="geometry">
                        <mxPoint x="68" y="90" as="sourcePoint"/>
                        <mxPoint x="168" y="91" as="targetPoint"/>
                        <Array as="points"/>
                    </mxGeometry>
                </mxCell>
                <mxCell id="50" value="" style="shape=umlDestroy;whiteSpace=wrap;html=1;strokeWidth=3;" vertex="1" parent="34">
                    <mxGeometry x="53" y="321" width="30" height="30" as="geometry"/>
                </mxCell>
                <mxCell id="76" value="" style="html=1;points=[];perimeter=orthogonalPerimeter;rounded=0;shadow=0;glass=0;sketch=0;fillStyle=dashed;strokeWidth=2;fontSize=11;fillColor=#B0B0B0;gradientColor=none;" vertex="1" parent="34">
                    <mxGeometry x="63" y="41" width="10" height="227" as="geometry"/>
                </mxCell>
                <mxCell id="35" value="" style="html=1;verticalAlign=bottom;labelBackgroundColor=none;endArrow=block;endFill=1;rounded=0;startSize=14;endSize=14;sourcePerimeterSpacing=8;targetPerimeterSpacing=8;curved=1;" edge="1" parent="1" source="6">
                    <mxGeometry width="160" relative="1" as="geometry">
                        <mxPoint x="926" y="844" as="sourcePoint"/>
                        <mxPoint x="1054" y="826" as="targetPoint"/>
                        <Array as="points">
                            <mxPoint x="945" y="826"/>
                        </Array>
                    </mxGeometry>
                </mxCell>
                <mxCell id="36" value="DriverManager&lt;br&gt;.getConnection()" style="edgeLabel;html=1;align=center;verticalAlign=middle;resizable=0;points=[];" vertex="1" connectable="0" parent="35">
                    <mxGeometry x="-0.1828" y="3" relative="1" as="geometry">
                        <mxPoint as="offset"/>
                    </mxGeometry>
                </mxCell>
                <mxCell id="37" value="" style="html=1;verticalAlign=bottom;labelBackgroundColor=none;endArrow=block;endFill=1;rounded=0;startSize=14;endSize=14;sourcePerimeterSpacing=8;targetPerimeterSpacing=8;curved=1;" edge="1" parent="1" source="6" target="34">
                    <mxGeometry width="160" relative="1" as="geometry">
                        <mxPoint x="924.5" y="836" as="sourcePoint"/>
                        <mxPoint x="1064" y="836" as="targetPoint"/>
                        <Array as="points">
                            <mxPoint x="949" y="890"/>
                        </Array>
                    </mxGeometry>
                </mxCell>
                <mxCell id="38" value="prepareStatement()" style="edgeLabel;html=1;align=center;verticalAlign=middle;resizable=0;points=[];" vertex="1" connectable="0" parent="37">
                    <mxGeometry x="-0.1828" y="3" relative="1" as="geometry">
                        <mxPoint as="offset"/>
                    </mxGeometry>
                </mxCell>
                <mxCell id="39" value="" style="html=1;verticalAlign=bottom;labelBackgroundColor=none;endArrow=block;endFill=1;rounded=0;startSize=14;endSize=14;sourcePerimeterSpacing=8;targetPerimeterSpacing=8;curved=1;" edge="1" parent="1" source="6" target="41">
                    <mxGeometry width="160" relative="1" as="geometry">
                        <mxPoint x="924.5" y="890" as="sourcePoint"/>
                        <mxPoint x="1138.5" y="890" as="targetPoint"/>
                        <Array as="points">
                            <mxPoint x="981" y="942"/>
                        </Array>
                    </mxGeometry>
                </mxCell>
                <mxCell id="40" value="executeQuery()" style="edgeLabel;html=1;align=center;verticalAlign=middle;resizable=0;points=[];" vertex="1" connectable="0" parent="39">
                    <mxGeometry x="-0.1828" y="3" relative="1" as="geometry">
                        <mxPoint x="-2" y="-7" as="offset"/>
                    </mxGeometry>
                </mxCell>
                <mxCell id="41" value=":PreparedStatement" style="shape=umlLifeline;perimeter=lifelinePerimeter;whiteSpace=wrap;html=1;container=1;collapsible=0;recursiveResize=0;outlineConnect=0;" vertex="1" parent="1">
                    <mxGeometry x="1226" y="870" width="136" height="263" as="geometry"/>
                </mxCell>
                <mxCell id="77" value="" style="html=1;points=[];perimeter=orthogonalPerimeter;rounded=0;shadow=0;glass=0;sketch=0;fillStyle=dashed;strokeWidth=2;fontSize=11;fillColor=#B0B0B0;gradientColor=none;" vertex="1" parent="41">
                    <mxGeometry x="63" y="73" width="10" height="122" as="geometry"/>
                </mxCell>
                <mxCell id="46" value="" style="html=1;verticalAlign=bottom;labelBackgroundColor=none;endArrow=block;endFill=1;rounded=0;startSize=14;endSize=14;sourcePerimeterSpacing=8;targetPerimeterSpacing=8;" edge="1" parent="1" source="41" target="29">
                    <mxGeometry width="160" relative="1" as="geometry">
                        <mxPoint x="1391.0039393939392" y="944" as="sourcePoint"/>
                        <mxPoint x="1553.6100000000001" y="982" as="targetPoint"/>
                        <Array as="points">
                            <mxPoint x="1306" y="954"/>
                            <mxPoint x="1389" y="978"/>
                        </Array>
                    </mxGeometry>
                </mxCell>
                <mxCell id="60" value="[interrogazione&lt;br&gt;DB]" style="edgeLabel;html=1;align=center;verticalAlign=middle;resizable=0;points=[];" vertex="1" connectable="0" parent="46">
                    <mxGeometry x="-0.3048" y="-1" relative="1" as="geometry">
                        <mxPoint x="14" y="6" as="offset"/>
                    </mxGeometry>
                </mxCell>
                <mxCell id="47" value="" style="html=1;verticalAlign=bottom;labelBackgroundColor=none;endArrow=block;endFill=1;dashed=1;rounded=0;startSize=14;endSize=14;sourcePerimeterSpacing=8;targetPerimeterSpacing=8;" edge="1" parent="1" source="29" target="41">
                    <mxGeometry width="160" relative="1" as="geometry">
                        <mxPoint x="1110.25" y="1061.9999999999998" as="sourcePoint"/>
                        <mxPoint x="950" y="1061.9999999999998" as="targetPoint"/>
                        <Array as="points">
                            <mxPoint x="1396" y="1001"/>
                            <mxPoint x="1323" y="1042"/>
                        </Array>
                    </mxGeometry>
                </mxCell>
                <mxCell id="49" value="" style="html=1;verticalAlign=bottom;labelBackgroundColor=none;endArrow=block;endFill=1;dashed=1;rounded=0;startSize=14;endSize=14;sourcePerimeterSpacing=8;targetPerimeterSpacing=8;curved=1;" edge="1" parent="1" source="41" target="6">
                    <mxGeometry width="160" relative="1" as="geometry">
                        <mxPoint x="924.5000000000009" y="1027" as="sourcePoint"/>
                        <mxPoint x="764.3888888888891" y="1027" as="targetPoint"/>
                        <Array as="points">
                            <mxPoint x="1238" y="1068"/>
                        </Array>
                    </mxGeometry>
                </mxCell>
                <mxCell id="68" value="[ResultSet]" style="edgeLabel;html=1;align=center;verticalAlign=middle;resizable=0;points=[];fontSize=11;" vertex="1" connectable="0" parent="49">
                    <mxGeometry x="0.172" y="2" relative="1" as="geometry">
                        <mxPoint x="53" y="12" as="offset"/>
                    </mxGeometry>
                </mxCell>
                <mxCell id="51" value="" style="shape=umlDestroy;whiteSpace=wrap;html=1;strokeWidth=3;" vertex="1" parent="1">
                    <mxGeometry x="1279" y="1121" width="30" height="30" as="geometry"/>
                </mxCell>
                <mxCell id="52" value="" style="html=1;verticalAlign=bottom;labelBackgroundColor=none;endArrow=block;endFill=1;dashed=1;rounded=0;startSize=14;endSize=14;sourcePerimeterSpacing=8;targetPerimeterSpacing=8;" edge="1" parent="1" source="4" target="23">
                    <mxGeometry width="160" relative="1" as="geometry">
                        <mxPoint x="338" y="1064" as="sourcePoint"/>
                        <mxPoint x="224.0476190476188" y="1105" as="targetPoint"/>
                        <Array as="points">
                            <mxPoint x="592" y="1122"/>
                            <mxPoint x="467" y="1169"/>
                        </Array>
                    </mxGeometry>
                </mxCell>
                <mxCell id="53" value="" style="html=1;verticalAlign=bottom;labelBackgroundColor=none;endArrow=block;endFill=1;dashed=1;rounded=0;startSize=14;endSize=14;sourcePerimeterSpacing=8;targetPerimeterSpacing=8;" edge="1" parent="1" source="23" target="3">
                    <mxGeometry width="160" relative="1" as="geometry">
                        <mxPoint x="615.5" y="1132" as="sourcePoint"/>
                        <mxPoint x="452.54761904761904" y="1182" as="targetPoint"/>
                        <Array as="points">
                            <mxPoint x="433" y="1169"/>
                            <mxPoint x="318" y="1240"/>
                        </Array>
                    </mxGeometry>
                </mxCell>
                <mxCell id="61" value="[connection.close()]" style="text;html=1;align=center;verticalAlign=middle;resizable=0;points=[];autosize=1;strokeColor=none;fillColor=none;" vertex="1" parent="1">
                    <mxGeometry x="1064" y="1151" width="122" height="26" as="geometry"/>
                </mxCell>
                <mxCell id="62" value="[preparedStatement.close()]" style="text;html=1;align=center;verticalAlign=middle;resizable=0;points=[];autosize=1;strokeColor=none;fillColor=none;" vertex="1" parent="1">
                    <mxGeometry x="1213" y="1151" width="167" height="26" as="geometry"/>
                </mxCell>
                <mxCell id="63" value=":Java RMI" style="text;html=1;align=center;verticalAlign=middle;resizable=0;points=[];autosize=1;strokeColor=none;fillColor=none;" vertex="1" parent="1">
                    <mxGeometry x="409" y="519" width="72" height="26" as="geometry"/>
                </mxCell>
            </root>
        </mxGraphModel>
    </diagram>
</mxfile>